<mxfile host="app.diagrams.net" modified="2021-04-01T23:53:50.482Z" agent="5.0 (Macintosh; Intel Mac OS X 10_14_3) AppleWebKit/537.36 (KHTML, like Gecko) Chrome/89.0.4389.90 Safari/537.36" etag="6lEp38NK5iUksLp4jisg" version="14.5.1" type="github">
  <diagram id="3228e29e-7158-1315-38df-8450db1d8a1d" name="Page-1">
    <mxGraphModel dx="1130" dy="817" grid="1" gridSize="10" guides="1" tooltips="1" connect="1" arrows="1" fold="1" page="1" pageScale="1" pageWidth="800" pageHeight="190" background="#ffffff" math="0" shadow="1">
      <root>
        <mxCell id="0" />
        <mxCell id="1" parent="0" />
        <mxCell id="hxIQwMxnJQ58AHrIh3xL-3" style="edgeStyle=orthogonalEdgeStyle;rounded=0;orthogonalLoop=1;jettySize=auto;html=1;exitX=1;exitY=0.5;exitDx=0;exitDy=0;exitPerimeter=0;strokeWidth=10;endArrow=none;endFill=0;entryX=0.05;entryY=0.05;entryDx=0;entryDy=0;entryPerimeter=0;" parent="1" source="WelgVeyDKxLRvEI-DW8B-16" target="fYc7Ru6buci-YKz5Eo-_-1" edge="1">
          <mxGeometry relative="1" as="geometry">
            <mxPoint x="360" y="180" as="targetPoint" />
          </mxGeometry>
        </mxCell>
        <mxCell id="WelgVeyDKxLRvEI-DW8B-16" value="" style="fontColor=#0066CC;verticalAlign=top;verticalLabelPosition=bottom;labelPosition=center;align=center;html=1;outlineConnect=0;gradientColor=none;gradientDirection=north;strokeWidth=2;shape=mxgraph.networks.pc;fillColor=#4A919B;" parent="1" vertex="1">
          <mxGeometry x="86.00000000000003" y="49" width="147.15" height="103" as="geometry" />
        </mxCell>
        <mxCell id="fYc7Ru6buci-YKz5Eo-_-2" style="edgeStyle=orthogonalEdgeStyle;rounded=0;orthogonalLoop=1;jettySize=auto;html=1;exitX=0;exitY=0.5;exitDx=0;exitDy=0;exitPerimeter=0;entryX=0.95;entryY=0.05;entryDx=0;entryDy=0;entryPerimeter=0;strokeWidth=10;endArrow=none;endFill=0;" parent="1" source="WelgVeyDKxLRvEI-DW8B-18" target="fYc7Ru6buci-YKz5Eo-_-1" edge="1">
          <mxGeometry relative="1" as="geometry" />
        </mxCell>
        <mxCell id="WelgVeyDKxLRvEI-DW8B-18" value="" style="fontColor=#0066CC;verticalAlign=top;verticalLabelPosition=bottom;labelPosition=center;align=center;html=1;outlineConnect=0;gradientColor=none;gradientDirection=north;strokeWidth=2;shape=mxgraph.networks.pc;fillColor=#4A919B;" parent="1" vertex="1">
          <mxGeometry x="566" y="49" width="147.15" height="103" as="geometry" />
        </mxCell>
        <mxCell id="hxIQwMxnJQ58AHrIh3xL-1" value="&lt;font style=&quot;font-size: 50px&quot;&gt;A&lt;/font&gt;" style="text;html=1;strokeColor=none;fillColor=none;align=center;verticalAlign=middle;whiteSpace=wrap;rounded=0;" parent="1" vertex="1">
          <mxGeometry x="151" y="79" width="40" height="20" as="geometry" />
        </mxCell>
        <mxCell id="hxIQwMxnJQ58AHrIh3xL-2" value="&lt;font style=&quot;font-size: 50px&quot;&gt;B&lt;/font&gt;" style="text;html=1;strokeColor=none;fillColor=none;align=center;verticalAlign=middle;whiteSpace=wrap;rounded=0;" parent="1" vertex="1">
          <mxGeometry x="636" y="79" width="40" height="20" as="geometry" />
        </mxCell>
        <mxCell id="fYc7Ru6buci-YKz5Eo-_-3" style="edgeStyle=orthogonalEdgeStyle;rounded=0;orthogonalLoop=1;jettySize=auto;html=1;exitX=0;exitY=0.5;exitDx=0;exitDy=0;exitPerimeter=0;endArrow=none;endFill=0;strokeWidth=10;" parent="1" source="_KJd5dzx4qh3lxpyMWcO-2" target="fYc7Ru6buci-YKz5Eo-_-1" edge="1">
          <mxGeometry relative="1" as="geometry" />
        </mxCell>
        <mxCell id="_KJd5dzx4qh3lxpyMWcO-2" value="" style="fontColor=#0066CC;verticalAlign=top;verticalLabelPosition=bottom;labelPosition=center;align=center;html=1;outlineConnect=0;gradientColor=none;gradientDirection=north;strokeWidth=2;shape=mxgraph.networks.pc;fillColor=#4A919B;" parent="1" vertex="1">
          <mxGeometry x="560" y="240" width="147.15" height="103" as="geometry" />
        </mxCell>
        <mxCell id="_KJd5dzx4qh3lxpyMWcO-3" value="&lt;span style=&quot;font-size: 50px&quot;&gt;C&lt;br&gt;&lt;/span&gt;" style="text;html=1;strokeColor=none;fillColor=none;align=center;verticalAlign=middle;whiteSpace=wrap;rounded=0;" parent="1" vertex="1">
          <mxGeometry x="625" y="270" width="40" height="20" as="geometry" />
        </mxCell>
        <mxCell id="fYc7Ru6buci-YKz5Eo-_-1" value="" style="fontColor=#0066CC;verticalAlign=top;verticalLabelPosition=bottom;labelPosition=center;align=center;html=1;outlineConnect=0;gradientColor=none;gradientDirection=north;strokeWidth=2;shape=mxgraph.networks.hub;fillColor=#F19C99;" parent="1" vertex="1">
          <mxGeometry x="330" y="190" width="130" height="39" as="geometry" />
        </mxCell>
        <mxCell id="fYc7Ru6buci-YKz5Eo-_-4" value="&lt;span style=&quot;font-size: 30px&quot;&gt;交换机&lt;/span&gt;" style="text;html=1;strokeColor=none;fillColor=none;align=center;verticalAlign=middle;whiteSpace=wrap;rounded=0;" parent="1" vertex="1">
          <mxGeometry x="345" y="152" width="100" height="31" as="geometry" />
        </mxCell>
        <mxCell id="bW8L0aDx1Iclk9FvhG7W-1" value="" style="shape=flexArrow;endArrow=classic;html=1;strokeWidth=2;fillColor=#F19C99;strokeColor=#F19C99;" parent="1" edge="1">
          <mxGeometry width="50" height="50" relative="1" as="geometry">
            <mxPoint x="270" y="130" as="sourcePoint" />
            <mxPoint x="310" y="130" as="targetPoint" />
          </mxGeometry>
        </mxCell>
        <mxCell id="bW8L0aDx1Iclk9FvhG7W-2" value="&lt;font style=&quot;font-size: 20px&quot;&gt;B有空吗&lt;/font&gt;" style="text;html=1;strokeColor=none;fillColor=none;align=center;verticalAlign=middle;whiteSpace=wrap;rounded=0;" parent="1" vertex="1">
          <mxGeometry x="233.15" y="58" width="116.85" height="41" as="geometry" />
        </mxCell>
        <mxCell id="bW8L0aDx1Iclk9FvhG7W-3" value="&lt;font style=&quot;font-size: 20px&quot;&gt;B有空吗&lt;/font&gt;" style="text;html=1;strokeColor=none;fillColor=none;align=center;verticalAlign=middle;whiteSpace=wrap;rounded=0;" parent="1" vertex="1">
          <mxGeometry x="460" y="49" width="116.85" height="41" as="geometry" />
        </mxCell>
        <mxCell id="bW8L0aDx1Iclk9FvhG7W-4" value="" style="shape=flexArrow;endArrow=classic;html=1;strokeWidth=2;fillColor=#F19C99;strokeColor=#F19C99;" parent="1" edge="1">
          <mxGeometry width="50" height="50" relative="1" as="geometry">
            <mxPoint x="490" y="130" as="sourcePoint" />
            <mxPoint x="530" y="130" as="targetPoint" />
          </mxGeometry>
        </mxCell>
        <mxCell id="bW8L0aDx1Iclk9FvhG7W-7" value="&lt;span style=&quot;font-size: 18px&quot;&gt;B在2号端口，转发给它&lt;/span&gt;" style="shape=callout;whiteSpace=wrap;html=1;perimeter=calloutPerimeter;dashed=1;rounded=1;strokeWidth=3;direction=west;size=20;position=0.56;base=30;position2=0.56;fillColor=#F19C99;strokeColor=#F19C99;" parent="1" vertex="1">
          <mxGeometry x="210" y="240" width="120" height="101.5" as="geometry" />
        </mxCell>
        <mxCell id="o6Qymi9LCWFlwB0xCJtG-19" value="MAC地址" style="rounded=0;whiteSpace=wrap;html=1;strokeColor=#376B73;strokeWidth=2;fontSize=30;fillColor=#67AB9F;" parent="1" vertex="1">
          <mxGeometry x="50" y="430" width="227" height="60" as="geometry" />
        </mxCell>
        <mxCell id="o6Qymi9LCWFlwB0xCJtG-20" value="端口" style="rounded=0;whiteSpace=wrap;html=1;strokeColor=#376B73;strokeWidth=2;fontSize=30;fillColor=#67AB9F;" parent="1" vertex="1">
          <mxGeometry x="277" y="430" width="123" height="60" as="geometry" />
        </mxCell>
        <mxCell id="o6Qymi9LCWFlwB0xCJtG-21" value="控制信息" style="rounded=0;whiteSpace=wrap;html=1;strokeColor=#376B73;strokeWidth=2;fontSize=30;fillColor=#67AB9F;" parent="1" vertex="1">
          <mxGeometry x="400" y="430" width="150" height="60" as="geometry" />
        </mxCell>
        <mxCell id="o6Qymi9LCWFlwB0xCJtG-22" value="AA-AA-AA-AA-AA-AA" style="rounded=0;whiteSpace=wrap;html=1;strokeColor=#376B73;strokeWidth=2;fontSize=20;fillColor=#FFE599;" parent="1" vertex="1">
          <mxGeometry x="50" y="490" width="227" height="60" as="geometry" />
        </mxCell>
        <mxCell id="o6Qymi9LCWFlwB0xCJtG-23" value="1" style="rounded=0;whiteSpace=wrap;html=1;strokeColor=#376B73;strokeWidth=2;fontSize=20;fillColor=#FFE599;" parent="1" vertex="1">
          <mxGeometry x="277" y="490" width="123" height="60" as="geometry" />
        </mxCell>
        <mxCell id="o6Qymi9LCWFlwB0xCJtG-24" value="..." style="rounded=0;whiteSpace=wrap;html=1;strokeColor=#376B73;strokeWidth=2;fontSize=20;fillColor=#FFE599;" parent="1" vertex="1">
          <mxGeometry x="400" y="490" width="150" height="60" as="geometry" />
        </mxCell>
        <mxCell id="o6Qymi9LCWFlwB0xCJtG-25" value="BB-BB-BB-BB-BB-BB" style="rounded=0;whiteSpace=wrap;html=1;strokeColor=#376B73;strokeWidth=2;fontSize=20;fillColor=#FFE599;" parent="1" vertex="1">
          <mxGeometry x="50" y="550" width="227" height="60" as="geometry" />
        </mxCell>
        <mxCell id="o6Qymi9LCWFlwB0xCJtG-26" value="2" style="rounded=0;whiteSpace=wrap;html=1;strokeColor=#376B73;strokeWidth=2;fontSize=20;fillColor=#FFE599;" parent="1" vertex="1">
          <mxGeometry x="277" y="550" width="123" height="60" as="geometry" />
        </mxCell>
        <mxCell id="o6Qymi9LCWFlwB0xCJtG-27" value="..." style="rounded=0;whiteSpace=wrap;html=1;strokeColor=#376B73;strokeWidth=2;fontSize=20;fillColor=#FFE599;" parent="1" vertex="1">
          <mxGeometry x="400" y="550" width="150" height="60" as="geometry" />
        </mxCell>
        <mxCell id="o6Qymi9LCWFlwB0xCJtG-28" value="CC-CC-CC-CC-CC-CC" style="rounded=0;whiteSpace=wrap;html=1;strokeColor=#376B73;strokeWidth=2;fontSize=20;fillColor=#FFE599;" parent="1" vertex="1">
          <mxGeometry x="50" y="610" width="227" height="60" as="geometry" />
        </mxCell>
        <mxCell id="o6Qymi9LCWFlwB0xCJtG-29" value="3" style="rounded=0;whiteSpace=wrap;html=1;strokeColor=#376B73;strokeWidth=2;fontSize=20;fillColor=#FFE599;" parent="1" vertex="1">
          <mxGeometry x="277" y="610" width="123" height="60" as="geometry" />
        </mxCell>
        <mxCell id="o6Qymi9LCWFlwB0xCJtG-30" value="..." style="rounded=0;whiteSpace=wrap;html=1;strokeColor=#376B73;strokeWidth=2;fontSize=20;fillColor=#FFE599;" parent="1" vertex="1">
          <mxGeometry x="400" y="610" width="150" height="60" as="geometry" />
        </mxCell>
        <mxCell id="o6Qymi9LCWFlwB0xCJtG-31" value="..." style="rounded=0;whiteSpace=wrap;html=1;strokeColor=#376B73;strokeWidth=2;fontSize=20;fillColor=#FFE599;" parent="1" vertex="1">
          <mxGeometry x="50" y="670" width="227" height="60" as="geometry" />
        </mxCell>
        <mxCell id="o6Qymi9LCWFlwB0xCJtG-32" value="..." style="rounded=0;whiteSpace=wrap;html=1;strokeColor=#376B73;strokeWidth=2;fontSize=20;fillColor=#FFE599;" parent="1" vertex="1">
          <mxGeometry x="277" y="670" width="123" height="60" as="geometry" />
        </mxCell>
        <mxCell id="o6Qymi9LCWFlwB0xCJtG-33" value="..." style="rounded=0;whiteSpace=wrap;html=1;strokeColor=#376B73;strokeWidth=2;fontSize=20;fillColor=#FFE599;" parent="1" vertex="1">
          <mxGeometry x="400" y="670" width="150" height="60" as="geometry" />
        </mxCell>
        <mxCell id="o6Qymi9LCWFlwB0xCJtG-34" value="" style="shape=flexArrow;endArrow=classic;html=1;fontSize=20;endWidth=44;endSize=10.83;width=28;strokeColor=#F19C99;fillColor=#F19C99;" parent="1" edge="1">
          <mxGeometry width="50" height="50" relative="1" as="geometry">
            <mxPoint x="360" y="280" as="sourcePoint" />
            <mxPoint x="360" y="400" as="targetPoint" />
          </mxGeometry>
        </mxCell>
      </root>
    </mxGraphModel>
  </diagram>
</mxfile>
